<?xml version="1.0" encoding="utf-8"?>
<!-- Generator: Adobe Illustrator 24.0.0, SVG Export Plug-In . SVG Version: 6.00 Build 0)  -->
<svg version="1.1" id="Layer_1" xmlns="http://www.w3.org/2000/svg" xmlns:xlink="http://www.w3.org/1999/xlink" x="0px" y="0px"
	 viewBox="0 0 595.28 841.89" style="enable-background:new 0 0 595.28 841.89;" xml:space="preserve">
<style type="text/css">
	.st0{fill:url(#SVGID_1_);stroke:#000000;stroke-miterlimit:10;}
	.st1{fill:url(#SVGID_2_);stroke:#000000;stroke-miterlimit:10;}
	.st2{fill:#61B22F;stroke:#006633;stroke-width:0.75;stroke-miterlimit:10;}
	.st3{opacity:0.44;}
	.st4{fill:#ADC90E;}
	.st5{fill:none;stroke:#000000;stroke-width:0.25;stroke-miterlimit:10;}
	.st6{fill:#A51927;stroke:#000000;stroke-width:0.25;stroke-miterlimit:10;}
	.st7{fill:#E73551;stroke:#000000;stroke-width:0.25;stroke-miterlimit:10;}
	.st8{fill:#EF7C96;stroke:#000000;stroke-width:0.25;stroke-miterlimit:10;}
	.st9{fill:#F3A1B6;stroke:#000000;stroke-width:0.25;stroke-miterlimit:10;}
	.st10{fill:#6A534E;stroke:#000000;stroke-miterlimit:10;}
	.st11{fill:none;stroke:#000000;stroke-miterlimit:10;}
</style>
<g>
	<linearGradient id="SVGID_1_" gradientUnits="userSpaceOnUse" x1="252.1207" y1="488.3134" x2="341.7793" y2="488.3134">
		<stop  offset="0" style="stop-color:#7A946D"/>
		<stop  offset="0.4891" style="stop-color:#C8E1BD"/>
		<stop  offset="0.6331" style="stop-color:#E5E8E0"/>
		<stop  offset="0.7613" style="stop-color:#BCD4B0"/>
		<stop  offset="1" style="stop-color:#95AE88"/>
	</linearGradient>
	<rect x="252.12" y="244.7" class="st0" width="89.66" height="487.22"/>
	<linearGradient id="SVGID_2_" gradientUnits="userSpaceOnUse" x1="247.2923" y1="249.4345" x2="347.1103" y2="249.4345">
		<stop  offset="0" style="stop-color:#7A946D"/>
		<stop  offset="0.4891" style="stop-color:#C8E1BD"/>
		<stop  offset="0.6331" style="stop-color:#E5E8E0"/>
		<stop  offset="0.7613" style="stop-color:#BCD4B0"/>
		<stop  offset="1" style="stop-color:#95AE88"/>
	</linearGradient>
	<rect x="247.29" y="232.6" class="st1" width="99.82" height="33.67"/>
	<g>
		<path class="st2" d="M303.18,342.5c0,0,2.84-14,7.37-19.32s15.86-7.98,15.86-7.98s-3.69,7.66-5.67,14.66
			C316.76,340.54,303.18,342.5,303.18,342.5z"/>
		<path class="st2" d="M326.41,315.21c0,0-19.04,16.66-23.23,27.29"/>
		<g class="st3">
			<g>
				<path class="st4" d="M310.6,332.86c3.3-0.18,6.8-0.57,9.05-3.28c0.07-0.09,0.01-0.51,0.01-0.62c0-0.11-0.08-0.54-0.01-0.62
					c-2.26,2.71-5.75,3.1-9.05,3.28C310.57,331.61,310.61,332.86,310.6,332.86L310.6,332.86z"/>
			</g>
		</g>
		<g class="st3">
			<g>
				<path class="st4" d="M316.75,326.05c1.9,0.37,3.81-0.43,5.07-1.87c0.01-0.02,0-0.19,0-0.18c0-0.15,0-0.29,0-0.44
					c0-0.15,0-0.29,0-0.44c0-0.03-0.02-0.16,0-0.18c-1.26,1.43-3.17,2.23-5.07,1.87C316.82,324.81,316.67,326.03,316.75,326.05
					L316.75,326.05z"/>
			</g>
		</g>
		<g class="st3">
			<g>
				<path class="st4" d="M315.51,325.56c0.14-0.2,0.11-0.43,0.11-0.66c0-0.34,0.03-0.69-0.01-1.02c-0.03-0.26-0.11-0.52-0.17-0.78
					c0.18,0.8-0.05,1.01,0.03,0.63c0.02-0.08,0.03-0.16,0.06-0.24c0.04-0.14,0.1-0.28,0.16-0.41c0.25-0.57,0.64-1.07,0.99-1.58
					c0.4-0.58,0.81-1.16,1.21-1.74c0.02-0.02,0-0.18,0-0.18c0-0.15,0-0.29,0-0.44s0-0.29,0-0.44c0-0.04-0.02-0.16,0-0.18
					c-0.39,0.56-0.79,1.13-1.18,1.69c-0.36,0.51-0.74,1.01-1,1.58c-0.25,0.55-0.28,1.07-0.28,1.67c0,0.31-0.02,0.64,0.03,0.95
					c0.04,0.28,0.15,0.53,0.17,0.81c0-0.39,0-0.78,0-1.16c0,0.03,0,0.05,0,0.08c0-0.03,0-0.06,0-0.09c-0.01,0.11-0.04,0.19-0.1,0.27
					c-0.02,0.02,0,0.18,0,0.18c0,0.15,0,0.29,0,0.44c0,0.15,0,0.29,0,0.44C315.51,325.41,315.53,325.53,315.51,325.56L315.51,325.56
					z"/>
			</g>
		</g>
		<g class="st3">
			<g>
				<path class="st4" d="M309.94,330.64c-0.01-0.08-0.01-0.71-0.03-0.29c0.01-0.19,0.02-0.38,0.03-0.57
					c0.03-0.35,0.07-0.69,0.13-1.04c0.11-0.71,0.28-1.4,0.51-2.08c0.43-1.3,1.06-2.52,1.9-3.6c0.07-0.09,0.01-0.51,0.01-0.62
					c0-0.12-0.08-0.53-0.01-0.62c-2.22,2.88-2.79,6.49-2.54,10.04C309.92,331.54,309.97,331.01,309.94,330.64L309.94,330.64z"/>
			</g>
		</g>
		<g class="st3">
			<g>
				<path class="st4" d="M307.01,337.91c3.51,1.73,7.65,0.38,9.95-2.66c0.07-0.1,0.01-0.5,0.01-0.62c0-0.12-0.08-0.53-0.01-0.62
					c-2.3,3.04-6.44,4.39-9.95,2.66C307.17,336.73,306.84,337.82,307.01,337.91L307.01,337.91z"/>
			</g>
		</g>
	</g>
	<g>
		<path class="st2" d="M295.72,533.42c0,0,9.44-9.18,15.77-10.22s16.76,4.84,16.76,4.84s-6.87,3.52-12.03,7.7
			C307.57,541.45,295.72,533.42,295.72,533.42z"/>
		<path class="st2" d="M328.25,528.04c0,0-23.74-0.15-32.53,5.38"/>
		<g class="st3">
			<g>
				<path class="st4" d="M306.91,531.08c2.51,2.01,5.47,4.39,8.91,3.78c0.08-0.01-0.06-1.24,0-1.25c-3.44,0.61-6.4-1.77-8.91-3.78
					c0.05,0.04-0.01,0.55-0.01,0.62C306.9,530.55,306.83,531.03,306.91,531.08L306.91,531.08z"/>
			</g>
		</g>
		<g class="st3">
			<g>
				<path class="st4" d="M315.31,529.99c1.21,1.48,3.09,2.38,5.01,2.1c0.07-0.01-0.05-1.24,0-1.25c-1.92,0.28-3.8-0.61-5.01-2.1
					c0.01,0.01,0,0.2,0,0.18c0,0.15,0,0.29,0,0.44c0,0.15,0,0.29,0,0.44C315.3,529.85,315.28,529.97,315.31,529.99L315.31,529.99z"
					/>
			</g>
		</g>
		<g class="st3">
			<g>
				<path class="st4" d="M314.57,528.72c0.4-0.1,0.42-0.73,0.57-1.03c0.19-0.41,0.55-0.69,0.95-0.89c0.44-0.22,0.93-0.34,1.4-0.48
					c0.65-0.19,1.3-0.37,1.95-0.56c0.03-0.01,0.01-0.57,0.01-0.62c0-0.05-0.03-0.62-0.01-0.62c-0.65,0.19-1.3,0.37-1.95,0.56
					c-0.47,0.14-0.96,0.25-1.4,0.48c-0.4,0.2-0.75,0.49-0.95,0.89c-0.15,0.31-0.17,0.94-0.57,1.03c-0.03,0.01-0.01,0.57-0.01,0.62
					C314.56,528.15,314.59,528.72,314.57,528.72L314.57,528.72z"/>
			</g>
		</g>
		<g class="st3">
			<g>
				<path class="st4" d="M306.89,529.82c1.36-2.54,3.69-4.6,6.54-5.24c0.1-0.02-0.08-1.23,0-1.25c-2.85,0.64-5.18,2.7-6.54,5.24
					c-0.07,0.13-0.01,0.48-0.01,0.62c0,0.15,0,0.29,0,0.44C306.88,529.68,306.9,529.79,306.89,529.82L306.89,529.82z"/>
			</g>
		</g>
		<g class="st3">
			<g>
				<path class="st4" d="M301.45,532.58c1.69,3.4,5.46,5.82,9.31,4.91c0.1-0.02-0.08-1.23,0-1.25c-3.85,0.92-7.62-1.51-9.31-4.91
					c0.06,0.13-0.01,0.48-0.01,0.62C301.45,532.12,301.38,532.43,301.45,532.58L301.45,532.58z"/>
			</g>
		</g>
	</g>
	<g>
		<path class="st2" d="M297.01,545.14c0,0,11.69,1.21,14.55,5.72c2.86,4.51,0.15,17.44,0.15,17.44s-5.42-3.17-11-4.44
			C292.62,560.81,297.01,545.14,297.01,545.14z"/>
		<path class="st2" d="M311.7,568.3c0,0-6.75-19.86-14.69-23.16"/>
		<g class="st3">
			<g>
				<path class="st4" d="M303.14,551.67c-0.74,2.13-1.56,4.31-1.75,6.58c-0.14,1.55-0.23,3.46,0.66,4.82
					c-0.06-0.1,0.01-0.5,0.01-0.62c0-0.14,0.07-0.5-0.01-0.62c-0.39-0.59-0.58-1.25-0.66-1.95c-0.01-0.1-0.02-0.2-0.03-0.3
					c-0.01-0.34-0.02-0.22,0,0.35c0.03,0,0.04-0.57,0.05-0.69c0.05-0.43,0.12-0.85,0.21-1.27c0.36-1.72,0.95-3.38,1.52-5.04
					C303.27,552.55,303.01,552.04,303.14,551.67L303.14,551.67z"/>
			</g>
		</g>
		<g class="st3">
			<g>
				<path class="st4" d="M306.64,557.87c-0.59,1.12-1.02,2.35-1.06,3.63c-0.04,1.1-0.11,2.32,0.48,3.3c-0.01-0.02,0-0.18,0-0.18
					c0-0.15,0-0.29,0-0.44c0-0.15,0-0.29,0-0.44c0-0.04,0.02-0.15,0-0.18c-0.19-0.32-0.32-0.66-0.39-1.02
					c-0.05-0.23-0.04-0.46-0.08-0.69c0,0.26,0,0.52,0,0.78c0-0.08,0.01-0.16,0.02-0.24c0.01-0.12,0.02-0.24,0.04-0.36
					c0.15-1.02,0.52-1.99,1-2.9c0.02-0.03,0-0.17,0-0.18c0-0.15,0-0.29,0-0.44c0-0.15,0-0.29,0-0.44
					C306.65,558.01,306.62,557.91,306.64,557.87L306.64,557.87z"/>
			</g>
		</g>
		<g class="st3">
			<g>
				<path class="st4" d="M307.67,557.59c0.21,0.27,0.81-0.15,1.04-0.23c0.4-0.15,0.83-0.15,1.22,0.06c0.35,0.19,0.61,0.5,0.87,0.79
					c0.39,0.43,0.78,0.86,1.17,1.29c-0.01-0.01,0-0.2,0-0.18c0-0.15,0-0.29,0-0.44c0-0.15,0-0.29,0-0.44c0-0.03,0.02-0.16,0-0.18
					c-0.38-0.42-0.76-0.84-1.14-1.25c-0.27-0.3-0.54-0.62-0.9-0.82c-0.37-0.2-0.79-0.21-1.18-0.07c-0.23,0.08-0.86,0.51-1.07,0.24
					c0.01,0.01,0,0.19,0,0.18c0,0.15,0,0.29,0,0.44c0,0.15,0,0.29,0,0.44C307.66,557.44,307.65,557.56,307.67,557.59L307.67,557.59z
					"/>
			</g>
		</g>
		<g class="st3">
			<g>
				<path class="st4" d="M304.37,551.99c2.41-0.59,5.38-0.5,7.01,1.65c-0.06-0.08,0.01-0.51,0.01-0.62c0-0.13,0.07-0.52-0.01-0.62
					c-1.63-2.15-4.6-2.24-7.01-1.65C304.26,550.77,304.45,551.97,304.37,551.99L304.37,551.99z"/>
			</g>
		</g>
		<g class="st3">
			<g>
				<path class="st4" d="M300.1,548.22c-1.55,2.12-2.8,4.63-3.04,7.28c-0.16,1.75-0.18,3.82,0.96,5.27
					c-0.06-0.08,0.01-0.52,0.01-0.62c0-0.13,0.07-0.52-0.01-0.62c-0.45-0.57-0.73-1.24-0.87-1.96c-0.04-0.2-0.07-0.4-0.09-0.6
					c-0.01-0.13-0.01-0.27-0.03-0.4c0.12,0.98-0.01,0.68,0.02,0.33c0.04-0.5,0.11-0.99,0.22-1.47c0.48-2.16,1.53-4.17,2.83-5.95
					c0.07-0.1,0.01-0.5,0.01-0.62C300.1,548.72,300.02,548.32,300.1,548.22L300.1,548.22z"/>
			</g>
		</g>
	</g>
	<g>
		<path class="st2" d="M315.04,387.92c0,0,3.11,11.28,1.1,15.78c-2.01,4.5-11.42,7.33-11.42,7.33s0.27-6.31-0.76-11.98
			C303.27,390.33,315.04,387.92,315.04,387.92z"/>
		<path class="st2" d="M304.71,411.02c0,0,10.8-14.41,10.32-23.1"/>
		<g class="st3">
			<g>
				<path class="st4" d="M312.38,395.9c-2.43,0.29-5.93,0.56-7.04,3.17c-0.06,0.15-0.01,0.46-0.01,0.62c0,0.16,0.07,0.47,0.01,0.62
					c1.11-2.62,4.61-2.89,7.04-3.17C312.43,397.15,312.34,395.91,312.38,395.9L312.38,395.9z"/>
			</g>
		</g>
		<g class="st3">
			<g>
				<path class="st4" d="M309.47,401.69c-1.51-0.14-3.23,0.32-3.93,1.8c-0.02,0.03,0,0.16,0,0.18c0,0.15,0,0.29,0,0.44
					c0,0.15,0,0.29,0,0.44c0,0.04,0.02,0.15,0,0.18c0.7-1.48,2.42-1.94,3.93-1.8C309.44,402.94,309.52,401.7,309.47,401.69
					L309.47,401.69z"/>
			</g>
		</g>
		<g class="st3">
			<g>
				<path class="st4" d="M310.82,402c-0.08,0.26-0.02,0.61-0.02,0.88c0,0.24-0.03,0.48,0.1,0.69c0.11,0.19,0.28,0.34,0.41,0.52
					c0.15,0.2,0.27,0.43,0.33,0.68c0.01,0.05,0.02,0.09,0.03,0.14c0,0.02,0.01,0.05,0.01,0.07c0.02,0.28,0.02,0.16,0.01-0.38
					c0.01-0.52,0.01-0.66-0.01-0.44c0,0.03,0,0.06-0.01,0.09c-0.01,0.06-0.02,0.11-0.02,0.17c-0.04,0.21-0.1,0.42-0.16,0.63
					c-0.16,0.57-0.32,1.14-0.48,1.71c-0.05,0.18-0.01,0.44-0.01,0.62c0,0.15,0,0.29,0,0.44c0,0.05,0.02,0.13,0,0.18
					c0.28-0.99,0.68-2,0.69-3.05c0-0.54,0.08-1.16-0.14-1.68c-0.1-0.24-0.25-0.43-0.42-0.63c-0.13-0.16-0.3-0.33-0.33-0.55
					c0,0.42,0,0.83,0,1.25c0-0.03,0-0.06,0.02-0.09c0.06-0.17,0.01-0.44,0.01-0.62c0-0.15,0-0.29,0-0.44
					C310.83,402.14,310.81,402.05,310.82,402L310.82,402z"/>
			</g>
		</g>
		<g class="st3">
			<g>
				<path class="st4" d="M313.4,397.9c0.64,1.06,1.15,2.21,1.41,3.43c0.06,0.28,0.11,0.56,0.14,0.85c0.02,0.14,0.03,0.28,0.04,0.42
					c0.01,0.33,0.02,0.15,0.01-0.56c0,0.1-0.01,0.19-0.02,0.29c-0.04,0.5-0.15,0.99-0.32,1.47c-0.06,0.16-0.01,0.45-0.01,0.62
					c0,0.17,0.07,0.46,0.01,0.62c0.44-1.23,0.43-2.67,0.31-3.95c-0.15-1.58-0.75-3.09-1.57-4.44c0.06,0.11-0.01,0.49-0.01,0.62
					C313.39,397.43,313.32,397.77,313.4,397.9L313.4,397.9z"/>
			</g>
		</g>
		<g class="st3">
			<g>
				<path class="st4" d="M313.63,391.68c-2.86-0.83-6.99-0.57-8.12,2.74c-0.06,0.17-0.01,0.45-0.01,0.62c0,0.18,0.06,0.46,0.01,0.62
					c1.14-3.3,5.27-3.57,8.12-2.74C313.53,392.9,313.75,391.71,313.63,391.68L313.63,391.68z"/>
			</g>
		</g>
	</g>
	<polygon class="st5" points="305.73,308.77 299.79,320.39 289.42,325.52 278.57,322.19 271.38,311.68 270.61,298.01 276.54,286.38 
		286.92,281.26 297.77,284.58 304.96,295.09 	"/>
	<polygon class="st5" points="305.73,308.77 299.79,320.39 289.42,325.52 278.57,322.19 271.38,311.68 270.61,298.01 276.54,286.38 
		286.92,281.26 297.77,284.58 304.96,295.09 	"/>
	<polygon class="st5" points="305.73,308.77 299.79,320.39 289.42,325.52 278.57,322.19 271.38,311.68 270.61,298.01 276.54,286.38 
		286.92,281.26 297.77,284.58 304.96,295.09 	"/>
	<polygon class="st5" points="305.73,308.77 299.79,320.39 289.42,325.52 278.57,322.19 271.38,311.68 270.61,298.01 276.54,286.38 
		286.92,281.26 297.77,284.58 304.96,295.09 	"/>
	<polygon class="st5" points="305.73,308.77 299.79,320.39 289.42,325.52 278.57,322.19 271.38,311.68 270.61,298.01 276.54,286.38 
		286.92,281.26 297.77,284.58 304.96,295.09 	"/>
	<polygon class="st5" points="305.73,308.77 299.79,320.39 289.42,325.52 278.57,322.19 271.38,311.68 270.61,298.01 276.54,286.38 
		286.92,281.26 297.77,284.58 304.96,295.09 	"/>
	<polygon class="st5" points="305.73,308.77 299.79,320.39 289.42,325.52 278.57,322.19 271.38,311.68 270.61,298.01 276.54,286.38 
		286.92,281.26 297.77,284.58 304.96,295.09 	"/>
	<polygon class="st6" points="305.73,308.77 299.79,320.39 289.42,325.52 278.57,322.19 271.38,311.68 270.61,298.01 276.54,286.38 
		286.92,281.26 297.77,284.58 304.96,295.09 	"/>
	<polygon class="st5" points="303.19,302.82 300.59,313.75 293.25,320.72 283.97,321.07 276.29,314.66 273.15,303.95 275.75,293.03 
		283.09,286.06 292.37,285.71 300.05,292.11 	"/>
	<polygon class="st7" points="303.19,302.82 300.59,313.75 293.25,320.72 283.97,321.07 276.29,314.66 273.15,303.95 275.75,293.03 
		283.09,286.06 292.37,285.71 300.05,292.11 	"/>
	<polygon class="st8" points="299.03,303.1 297.09,310.98 291.74,315.96 285.03,316.13 279.52,311.44 277.31,303.67 279.25,295.79 
		284.59,290.82 291.3,290.64 296.82,295.33 	"/>
	<polygon class="st9" points="296.26,301.65 295.54,307.81 292.02,312.28 287.02,313.35 282.46,310.62 280.08,305.13 280.79,298.97 
		284.32,294.5 289.32,293.42 293.88,296.15 	"/>
	<polygon class="st5" points="339.27,358.39 334.92,366.9 327.33,370.65 319.38,368.22 314.12,360.52 313.55,350.51 317.9,342 
		325.49,338.24 333.44,340.68 338.7,348.37 	"/>
	<polygon class="st5" points="339.27,358.39 334.92,366.9 327.33,370.65 319.38,368.22 314.12,360.52 313.55,350.51 317.9,342 
		325.49,338.24 333.44,340.68 338.7,348.37 	"/>
	<polygon class="st5" points="339.27,358.39 334.92,366.9 327.33,370.65 319.38,368.22 314.12,360.52 313.55,350.51 317.9,342 
		325.49,338.24 333.44,340.68 338.7,348.37 	"/>
	<polygon class="st5" points="339.27,358.39 334.92,366.9 327.33,370.65 319.38,368.22 314.12,360.52 313.55,350.51 317.9,342 
		325.49,338.24 333.44,340.68 338.7,348.37 	"/>
	<polygon class="st5" points="339.27,358.39 334.92,366.9 327.33,370.65 319.38,368.22 314.12,360.52 313.55,350.51 317.9,342 
		325.49,338.24 333.44,340.68 338.7,348.37 	"/>
	<polygon class="st5" points="339.27,358.39 334.92,366.9 327.33,370.65 319.38,368.22 314.12,360.52 313.55,350.51 317.9,342 
		325.49,338.24 333.44,340.68 338.7,348.37 	"/>
	<polygon class="st5" points="339.27,358.39 334.92,366.9 327.33,370.65 319.38,368.22 314.12,360.52 313.55,350.51 317.9,342 
		325.49,338.24 333.44,340.68 338.7,348.37 	"/>
	<polygon class="st6" points="339.27,358.39 334.92,366.9 327.33,370.65 319.38,368.22 314.12,360.52 313.55,350.51 317.9,342 
		325.49,338.24 333.44,340.68 338.7,348.37 	"/>
	<polygon class="st5" points="337.41,354.03 335.51,362.03 330.13,367.14 323.33,367.39 317.71,362.7 315.41,354.86 317.31,346.86 
		322.69,341.76 329.49,341.5 335.11,346.19 	"/>
	<polygon class="st7" points="337.41,354.03 335.51,362.03 330.13,367.14 323.33,367.39 317.71,362.7 315.41,354.86 317.31,346.86 
		322.69,341.76 329.49,341.5 335.11,346.19 	"/>
	<polygon class="st9" points="332.33,353.17 331.81,357.68 329.23,360.96 325.57,361.74 322.23,359.74 320.49,355.72 321.01,351.21 
		323.59,347.94 327.25,347.15 330.59,349.15 	"/>
	<g>
		<polygon class="st5" points="314.2,464.15 309.86,472.66 302.26,476.41 294.31,473.98 289.05,466.28 288.49,456.27 292.83,447.76 
			300.43,444 308.38,446.44 313.64,454.13 		"/>
		<polygon class="st5" points="314.2,464.15 309.86,472.66 302.26,476.41 294.31,473.98 289.05,466.28 288.49,456.27 292.83,447.76 
			300.43,444 308.38,446.44 313.64,454.13 		"/>
		<polygon class="st5" points="314.2,464.15 309.86,472.66 302.26,476.41 294.31,473.98 289.05,466.28 288.49,456.27 292.83,447.76 
			300.43,444 308.38,446.44 313.64,454.13 		"/>
		<polygon class="st5" points="314.2,464.15 309.86,472.66 302.26,476.41 294.31,473.98 289.05,466.28 288.49,456.27 292.83,447.76 
			300.43,444 308.38,446.44 313.64,454.13 		"/>
		<polygon class="st5" points="314.2,464.15 309.86,472.66 302.26,476.41 294.31,473.98 289.05,466.28 288.49,456.27 292.83,447.76 
			300.43,444 308.38,446.44 313.64,454.13 		"/>
		<polygon class="st5" points="314.2,464.15 309.86,472.66 302.26,476.41 294.31,473.98 289.05,466.28 288.49,456.27 292.83,447.76 
			300.43,444 308.38,446.44 313.64,454.13 		"/>
		<polygon class="st5" points="314.2,464.15 309.86,472.66 302.26,476.41 294.31,473.98 289.05,466.28 288.49,456.27 292.83,447.76 
			300.43,444 308.38,446.44 313.64,454.13 		"/>
		<polygon class="st6" points="314.2,464.15 309.86,472.66 302.26,476.41 294.31,473.98 289.05,466.28 288.49,456.27 292.83,447.76 
			300.43,444 308.38,446.44 313.64,454.13 		"/>
		<polygon class="st5" points="312.34,459.79 310.44,467.79 305.07,472.9 298.27,473.15 292.65,468.47 290.35,460.62 292.25,452.62 
			297.63,447.52 304.42,447.26 310.04,451.95 		"/>
		<polygon class="st7" points="312.34,459.79 310.44,467.79 305.07,472.9 298.27,473.15 292.65,468.47 290.35,460.62 292.25,452.62 
			297.63,447.52 304.42,447.26 310.04,451.95 		"/>
		<polygon class="st8" points="309.3,460 307.88,465.77 303.96,469.41 299.05,469.54 295.01,466.1 293.39,460.42 294.81,454.65 
			298.73,451 303.64,450.88 307.68,454.31 		"/>
		<polygon class="st9" points="307.27,458.93 306.75,463.44 304.16,466.72 300.5,467.5 297.17,465.5 295.42,461.48 295.94,456.97 
			298.53,453.7 302.19,452.91 305.53,454.91 		"/>
	</g>
	<path class="st10" d="M323.87,731.15c-36.39-68.16-45.86-128.93-41.29-161.94c9.85-71.07,54.23-94.36,47.7-153.56
		c-4.34-39.37-31.84-71.94-50.89-89.05c19.05,17.11,44.27,45.64,48.61,85.01c6.52,59.2-39.9,90.99-49.74,162.05
		c-4.57,33.01-8.63,89.33,27.76,157.49H323.87z"/>
	<polygon class="st5" points="287.78,334.64 284.97,340.15 280.06,342.58 274.91,341 271.51,336.02 271.14,329.54 273.95,324.03 
		278.87,321.6 284.01,323.18 287.42,328.16 	"/>
	<polygon class="st5" points="287.78,334.64 284.97,340.15 280.06,342.58 274.91,341 271.51,336.02 271.14,329.54 273.95,324.03 
		278.87,321.6 284.01,323.18 287.42,328.16 	"/>
	<polygon class="st5" points="287.78,334.64 284.97,340.15 280.06,342.58 274.91,341 271.51,336.02 271.14,329.54 273.95,324.03 
		278.87,321.6 284.01,323.18 287.42,328.16 	"/>
	<polygon class="st5" points="287.78,334.64 284.97,340.15 280.06,342.58 274.91,341 271.51,336.02 271.14,329.54 273.95,324.03 
		278.87,321.6 284.01,323.18 287.42,328.16 	"/>
	<polygon class="st5" points="287.78,334.64 284.97,340.15 280.06,342.58 274.91,341 271.51,336.02 271.14,329.54 273.95,324.03 
		278.87,321.6 284.01,323.18 287.42,328.16 	"/>
	<polygon class="st5" points="287.78,334.64 284.97,340.15 280.06,342.58 274.91,341 271.51,336.02 271.14,329.54 273.95,324.03 
		278.87,321.6 284.01,323.18 287.42,328.16 	"/>
	<polygon class="st5" points="287.78,334.64 284.97,340.15 280.06,342.58 274.91,341 271.51,336.02 271.14,329.54 273.95,324.03 
		278.87,321.6 284.01,323.18 287.42,328.16 	"/>
	<polygon class="st6" points="287.78,334.64 284.97,340.15 280.06,342.58 274.91,341 271.51,336.02 271.14,329.54 273.95,324.03 
		278.87,321.6 284.01,323.18 287.42,328.16 	"/>
	<polygon class="st5" points="286.58,331.82 285.35,337 281.87,340.3 277.47,340.47 273.83,337.43 272.35,332.36 273.58,327.18 
		277.06,323.88 281.45,323.71 285.09,326.75 	"/>
	<polygon class="st7" points="286.58,331.82 285.35,337 281.87,340.3 277.47,340.47 273.83,337.43 272.35,332.36 273.58,327.18 
		277.06,323.88 281.45,323.71 285.09,326.75 	"/>
	<polygon class="st9" points="283.3,331.27 282.96,334.18 281.29,336.3 278.92,336.81 276.76,335.52 275.63,332.92 275.97,330 
		277.64,327.88 280.01,327.37 282.17,328.66 	"/>
	<path class="st11" d="M287.66,488.84c1.99,2.72,8.14,11.82,7.44,24.47c-0.34,6.05-2.12,10.81-3.56,13.83"/>
	<g>
		<path class="st2" d="M287.66,490.19c0,0-13.72-8.64-17.04-16.79s-0.02-25.08-0.02-25.08s6.34,7.74,12.88,12.86
			C292.96,470.33,287.66,490.19,287.66,490.19z"/>
		<path class="st2" d="M287.66,490.19c-9.3-9.43-17.05-41.87-17.05-41.87"/>
		<g class="st3">
			<g>
				<path class="st4" d="M280.53,476.93c0.94-2.77,1.91-5.59,2.13-8.53c0.16-2.21,0.11-4.55-0.75-6.62c0.15,0.35-0.15,0.89,0,1.25
					c1.74,4.14-0.02,8.65-1.38,12.65C280.4,476.06,280.65,476.56,280.53,476.93L280.53,476.93z"/>
			</g>
		</g>
		<g class="st3">
			<g>
				<path class="st4" d="M276.46,465.98c0.79-1.41,1.23-2.98,1.28-4.59c0.05-1.52,0.01-3.03-0.54-4.46
					c0.06,0.15-0.01,0.46-0.01,0.62c0,0.18-0.06,0.46,0.01,0.62c0.2,0.53,0.35,1.07,0.44,1.63c0.05,0.29,0,0.69,0.09,0.96
					c0.01-0.5,0-0.6-0.01-0.33c-0.01,0.12-0.02,0.24-0.03,0.36c-0.01,0.15-0.03,0.3-0.05,0.44c-0.17,1.23-0.58,2.41-1.19,3.49
					c-0.07,0.13-0.01,0.48-0.01,0.62C276.46,465.5,276.54,465.85,276.46,465.98L276.46,465.98z"/>
			</g>
		</g>
		<g class="st3">
			<g>
				<path class="st4" d="M275.25,466.33c-0.23-0.49-1-0.23-1.43-0.31c-0.59-0.1-1.04-0.53-1.39-0.99c-0.41-0.54-0.71-1.17-1.03-1.76
					c-0.39-0.73-0.79-1.47-1.18-2.2c0.01,0.02,0,0.18,0,0.18c0,0.15,0,0.29,0,0.44s0,0.29,0,0.44c0,0.05-0.02,0.14,0,0.18
					c0.39,0.72,0.77,1.44,1.16,2.16c0.33,0.61,0.63,1.25,1.05,1.81c0.34,0.45,0.78,0.87,1.36,0.98c0.43,0.08,1.22-0.19,1.46,0.31
					c-0.01-0.03,0-0.17,0-0.18c0-0.15,0-0.29,0-0.44c0-0.15,0-0.29,0-0.44C275.25,466.46,275.27,466.37,275.25,466.33L275.25,466.33
					z"/>
			</g>
		</g>
		<g class="st3">
			<g>
				<path class="st4" d="M279.08,476.29c-3.61-0.73-6.65-3.17-8.22-6.5c0.06,0.13-0.01,0.48-0.01,0.62c0,0.17-0.07,0.47,0.01,0.62
					c1.56,3.33,4.6,5.77,8.22,6.5C279,477.53,279.17,476.31,279.08,476.29L279.08,476.29z"/>
			</g>
		</g>
		<g class="st3">
			<g>
				<path class="st4" d="M284.07,483.68c2.09-2.42,3.38-5.49,3.64-8.67c0.21-2.55,0.03-5.2-1.09-7.54c0.16,0.33-0.16,0.91,0,1.25
					c0.51,1.05,0.84,2.16,1.01,3.31c0.05,0.34,0.07,0.68,0.1,1.02c0.01,0.13,0.01,0.31,0.02,0.07c0,0.21-0.02,0.42-0.04,0.63
					c-0.05,0.65-0.15,1.29-0.28,1.93c-0.54,2.49-1.69,4.81-3.35,6.73C283.86,482.67,284.27,483.44,284.07,483.68L284.07,483.68z"/>
			</g>
		</g>
	</g>
	<path class="st11" d="M307.2,380.12c1.28-0.2,5.48-0.68,10.22,1.75c2.26,1.16,3.86,2.59,4.84,3.6"/>
	<g>
		<path class="st2" d="M310.07,380.66c0,0-7.89,14.89-14.14,16.51c-6.24,1.62-17.94-8.18-17.94-8.18s6.33-5.65,10.8-12.43
			C296.53,367.32,310.07,380.66,310.07,380.66z"/>
		<path class="st2" d="M278,388.98c0,0,24.17,0.6,32.08-8.32"/>
		<g class="st3">
			<g>
				<path class="st4" d="M299.25,384.71c-1.42-1.62-2.84-3.28-4.53-4.62c-1.45-1.16-3.33-2.24-5.24-1.7c-0.12,0.03,0.1,1.22,0,1.25
					c1.91-0.54,3.79,0.54,5.24,1.7c1.69,1.35,3.11,3.01,4.53,4.62c-0.06-0.07,0.01-0.52,0.01-0.62
					C299.26,385.22,299.33,384.8,299.25,384.71L299.25,384.71z"/>
			</g>
		</g>
		<g class="st3">
			<g>
				<path class="st4" d="M290.91,386.37c-1.1-1.8-3.11-4.05-5.48-3.51c-0.03,0.01-0.01,0.57-0.01,0.62c0,0.05,0.02,0.62,0.01,0.62
					c2.37-0.54,4.38,1.71,5.48,3.51c-0.01-0.02,0-0.19,0-0.18c0-0.15,0-0.29,0-0.44s0-0.29,0-0.44
					C290.91,386.51,290.93,386.4,290.91,386.37L290.91,386.37z"/>
			</g>
		</g>
		<g class="st3">
			<g>
				<path class="st4" d="M291.9,388.46c-0.21,0.07-0.24,0.36-0.27,0.54c-0.05,0.3-0.05,0.61-0.08,0.91
					c-0.06,0.55-0.26,1.09-0.64,1.5c-0.3,0.32-0.68,0.54-1.08,0.73c-0.77,0.37-1.55,0.73-2.32,1.09c-0.05,0.02-0.01,0.56-0.01,0.62
					c0,0.06,0.05,0.61,0.01,0.62c0.77-0.36,1.55-0.72,2.32-1.09c0.39-0.19,0.78-0.41,1.08-0.73c0.38-0.41,0.58-0.95,0.64-1.5
					c0.03-0.29,0.04-0.59,0.08-0.88c0.03-0.19,0.06-0.5,0.27-0.57c0.04-0.01,0.01-0.57,0.01-0.62
					C291.91,389.04,291.87,388.47,291.9,388.46L291.9,388.46z"/>
			</g>
		</g>
		<g class="st3">
			<g>
				<path class="st4" d="M299.51,386.78c-0.71,3.22-2.28,7.26-5.68,8.48c-0.14,0.05,0.12,1.21,0,1.25c3.4-1.22,4.97-5.26,5.68-8.48
					C299.59,387.63,299.42,387.18,299.51,386.78L299.51,386.78z"/>
			</g>
		</g>
		<g class="st3">
			<g>
				<path class="st4" d="M304.52,382.35c-1.08-2.59-2.61-5.14-4.84-6.9c-1.56-1.23-3.59-2.04-5.54-1.28c-0.15,0.06,0.13,1.2,0,1.25
					c1.95-0.76,3.98,0.05,5.54,1.28c2.23,1.76,3.76,4.31,4.84,6.9C304.37,383.24,304.67,382.7,304.52,382.35L304.52,382.35z"/>
			</g>
		</g>
	</g>
	<path class="st11" d="M301.32,348.98c0,0,0.73-2.49,1.6-5.03c0.42-1.21,0.77-2.15,0.99-2.74"/>
</g>
</svg>
